<svg width="1440" height="1024" viewBox="0 0 1440 1024" fill="none" xmlns="http://www.w3.org/2000/svg">
<g filter="url(#filter0_df_91_57)">
<path d="M512.247 349.732C510.502 316.563 492.616 287.613 452.916 289.941C426.305 291.541 400.711 295.178 383.843 319.182C376.281 329.947 368.429 341.876 367.265 355.406C366.538 363.844 367.556 372.863 369.01 381.156C382.098 453.313 493.052 449.094 509.193 381.447C511.811 371.118 512.829 360.207 512.247 349.732Z" fill="#7B9C65"/>
<path d="M170.901 768.53C151.706 754.128 125.531 749.181 100.374 763.875C82.0509 774.495 72.5987 789.188 69.6904 804.9C68.6724 808.391 67.9453 811.737 67.5091 815.083C55.5848 866.583 116.515 929.866 173.082 885.786C215.108 852.908 210.455 798.062 170.901 768.53Z" fill="#74935F"/>
<path d="M947.361 927.164C937.036 876.848 857.783 849.63 820.12 902.3C803.833 918.925 801.652 940.994 809.068 960.709C811.686 971.743 817.066 981.159 824.192 988.809C852.403 1018.68 901.845 1027.36 930.056 991.605C944.452 973.361 956.086 950.557 947.361 927.164Z" fill="#6C8A59"/>
<path d="M947.361 44.4172C937.036 -5.89934 857.783 -33.1174 820.12 19.5532C803.833 36.1783 801.652 58.247 809.068 77.9616C811.686 88.996 817.066 98.4119 824.192 106.062C852.403 135.929 901.845 144.609 930.056 108.858C944.452 90.6143 956.086 67.81 947.361 44.4172Z" fill="#6C8A59"/>
<path d="M1301.57 768.42C1269.15 770.311 1238.75 779.331 1224.94 811.336C1220.14 822.538 1214.32 834.176 1214.76 846.688C1217.67 927.574 1339.97 938.921 1358.43 861.381C1361.05 850.761 1341.71 766.092 1301.57 768.42Z" fill="#658153"/>
<path d="M1110.97 518.464C1099.05 509.59 1083.2 515.7 1071.27 521.665C1060.51 527.048 1050.33 533.594 1039.86 539.268C1030.27 544.505 1019.94 549.451 1011.07 555.998C984.459 575.637 1007.43 621.609 1026.48 638.048C1051.21 659.288 1086.98 661.179 1113.15 641.103C1157.65 606.77 1152.71 549.451 1110.97 518.464Z" fill="#5E784D"/>
<path d="M1381 285.296C1374.45 262.456 1354.97 243.399 1332.43 235.252C1308.87 226.814 1276.59 231.033 1257.1 247.036C1235.43 264.784 1236.01 293.152 1240.52 318.32C1254.48 396.733 1363.11 387.713 1381.58 316.429C1384.34 305.809 1383.9 295.189 1381 285.296Z" fill="#576E47"/>
<path d="M1001.8 132.113C986.965 154.662 988.273 181.867 1000.49 205.434C1004.27 212.708 1009.5 219.255 1015.61 224.637C1036.26 242.968 1067.24 249.514 1092.97 238.458C1113.77 229.584 1127.73 209.653 1131.8 187.977C1160.3 116.838 1047.31 62.865 1001.8 132.113Z" fill="#506541"/>
<path d="M1209.24 20.0743C1184.08 52.9525 1192.08 105.907 1234.69 129.62C1267.55 147.95 1310.59 132.093 1327.46 99.2148C1358.58 38.1137 1314.08 -24.4421 1245.3 -4.07511C1229.6 0.58021 1217.67 9.16342 1209.24 20.0743Z" fill="#485C3B"/>
<path d="M1039.35 286.813C1038.62 286.231 1037.89 285.649 1037.31 285.067C1013.32 266.446 993.394 252.916 964.165 272.847C941.626 288.268 921.994 316.927 918.504 344.277C912.397 393.158 963.002 412.506 1003.72 403.341C1057.09 391.412 1087.63 326.383 1039.35 286.813Z" fill="#415335"/>
<path d="M577.641 71.1936C524.564 73.0848 469.887 132.004 514.966 179.284C543.759 209.689 594.074 209.398 623.448 180.012C653.259 150.334 650.205 102.762 613.414 80.2133C602.508 73.5212 590.147 70.7571 577.641 71.1936Z" fill="#3A4A2F"/>
<path d="M396.463 22.6104C396.317 22.4649 396.317 22.4649 396.172 22.3194C375.523 -2.26649 340.477 -14.9231 306.885 4.42553C287.254 15.7729 277.075 31.63 273.876 48.3601C265.587 74.5462 276.057 98.1138 294.525 113.535C316.919 137.975 353.128 148.595 387.883 121.536C401.843 110.77 409.696 97.8228 412.895 84.5843C421.62 60.1439 413.04 38.0311 396.463 22.6104Z" fill="#334029"/>
<path d="M421.53 791.711C396.954 770.616 360.745 760.433 331.807 777.89C305.195 794.039 330.353 923.515 378.631 913.913C413.241 907.075 444.506 881.326 448.577 849.466C451.34 828.808 439.561 807.277 421.53 791.711Z" fill="#2B3723"/>
<path d="M250.64 374.173C233.19 367.917 213.704 371.118 194.363 390.757C169.206 416.216 155.246 460.151 182.875 489.101C213.849 521.543 309.244 529.108 313.17 467.425C313.897 454.477 309.244 441.384 303.718 429.891C291.503 405.16 272.598 382.174 250.64 374.173Z" fill="#242E1E"/>
<path d="M426.965 580.519C426.529 579.937 425.947 579.501 425.511 579.064C397.445 553.46 339.569 578.191 311.939 594.049C277.33 613.979 300.015 653.84 319.792 675.226C343.495 700.83 381.885 711.886 418.676 683.663C441.216 666.351 447.323 602.486 426.965 580.519Z" fill="#1D2518"/>
<path d="M266.491 204.254C251.367 166.866 203.525 157.555 169.061 169.921C153.356 175.449 138.669 186.214 131.543 201.926C100.715 270.737 196.836 319.909 245.696 276.12C259.511 263.754 270.853 248.625 270.999 228.985C270.999 219.674 269.399 211.382 266.491 204.254Z" fill="#161C12"/>
<path d="M493.657 936.565C479.115 958.242 480.278 986.173 492.348 1008.58C497.292 1017.74 504.854 1028.65 515.76 1031.56C526.085 1034.33 537.718 1032.58 547.898 1030.69C570.728 1026.33 614.208 1015.41 623.951 991.702C652.453 921.581 539.172 868.481 493.657 936.565Z" fill="#0E120C"/>
<path d="M21.5467 616.772C55.6521 634.811 100.397 619.245 117.887 586.803C131.879 560.908 133.045 528.03 113.077 504.608C97.7737 486.569 48.6561 467.074 27.814 488.169C23.4415 492.679 20.3807 498.498 17.7572 504.026C4.20254 531.521 -16.0566 596.841 21.5467 616.772Z" fill="#070906"/>
<path d="M1333.29 616.772C1367.4 634.811 1412.14 619.245 1429.63 586.803C1443.63 560.908 1444.79 528.03 1424.82 504.608C1409.52 486.568 1360.4 467.074 1339.56 488.169C1335.19 492.678 1332.13 498.498 1329.5 504.026C1315.95 531.521 1295.69 596.841 1333.29 616.772Z" fill="#070906"/>
<path d="M1042.29 713.866C1026.74 716.339 1012.92 725.94 1004.2 746.162C972.931 818.174 1070.22 869.673 1119.66 823.702C1143.36 801.589 1154.56 778.604 1129.11 753.727C1120.53 745.289 1111.22 737.724 1101.33 731.032C1083.16 718.521 1061.34 710.811 1042.29 713.866Z" fill="black"/>
</g>
<defs>
<filter id="filter0_df_91_57" x="-4.5" y="-13.5" width="1449" height="1054.5" filterUnits="userSpaceOnUse" color-interpolation-filters="sRGB">
<feFlood flood-opacity="0" result="BackgroundImageFix"/>
<feColorMatrix in="SourceAlpha" type="matrix" values="0 0 0 0 0 0 0 0 0 0 0 0 0 0 0 0 0 0 127 0" result="hardAlpha"/>
<feOffset dy="4"/>
<feGaussianBlur stdDeviation="2"/>
<feComposite in2="hardAlpha" operator="out"/>
<feColorMatrix type="matrix" values="0 0 0 0 0 0 0 0 0 0 0 0 0 0 0 0 0 0 0.25 0"/>
<feBlend mode="normal" in2="BackgroundImageFix" result="effect1_dropShadow_91_57"/>
<feBlend mode="normal" in="SourceGraphic" in2="effect1_dropShadow_91_57" result="shape"/>
<feGaussianBlur stdDeviation="2.25" result="effect2_foregroundBlur_91_57"/>
</filter>
</defs>
</svg>
